<svg width="23" height="22" viewBox="0 0 27 26" fill="none" xmlns="http://www.w3.org/2000/svg">
<path d="M13.7383 2.1665H13.2617C12.687 2.1665 12.1359 2.39478 11.7296 2.80111C11.3233 3.20743 11.095 3.75853 11.095 4.33317V4.52817C11.0946 4.90812 10.9943 5.28129 10.8042 5.61024C10.614 5.9392 10.3407 6.21236 10.0117 6.40234L9.54584 6.67317C9.21646 6.86334 8.84283 6.96345 8.4625 6.96345C8.08217 6.96345 7.70854 6.86334 7.37917 6.67317L7.21667 6.5865C6.71949 6.29971 6.12883 6.2219 5.57434 6.37017C5.01985 6.51844 4.54685 6.88067 4.25917 7.37734L4.02084 7.789C3.73404 8.28618 3.65623 8.87685 3.8045 9.43134C3.95277 9.98582 4.315 10.4588 4.81167 10.7465L4.97417 10.8548C5.30163 11.0439 5.57392 11.3154 5.76397 11.6422C5.95402 11.9691 6.05522 12.3401 6.0575 12.7182V13.2707C6.05902 13.6525 5.95962 14.0279 5.76938 14.3589C5.57914 14.6899 5.30481 14.9648 4.97417 15.1557L4.81167 15.2532C4.315 15.5409 3.95277 16.0139 3.8045 16.5683C3.65623 17.1228 3.73404 17.7135 4.02084 18.2107L4.25917 18.6223C4.54685 19.119 5.01985 19.4812 5.57434 19.6295C6.12883 19.7778 6.71949 19.7 7.21667 19.4132L7.37917 19.3265C7.70854 19.1363 8.08217 19.0362 8.4625 19.0362C8.84283 19.0362 9.21646 19.1363 9.54584 19.3265L10.0117 19.5973C10.3407 19.7873 10.614 20.0605 10.8042 20.3894C10.9943 20.7184 11.0946 21.0916 11.095 21.4715V21.6665C11.095 22.2411 11.3233 22.7922 11.7296 23.1986C12.1359 23.6049 12.687 23.8332 13.2617 23.8332H13.7383C14.313 23.8332 14.8641 23.6049 15.2704 23.1986C15.6767 22.7922 15.905 22.2411 15.905 21.6665V21.4715C15.9054 21.0916 16.0057 20.7184 16.1958 20.3894C16.386 20.0605 16.6593 19.7873 16.9883 19.5973L17.4542 19.3265C17.7835 19.1363 18.1572 19.0362 18.5375 19.0362C18.9178 19.0362 19.2915 19.1363 19.6208 19.3265L19.7833 19.4132C20.2805 19.7 20.8712 19.7778 21.4257 19.6295C21.9802 19.4812 22.4532 19.119 22.7408 18.6223L22.9792 18.1998C23.266 17.7027 23.3438 17.112 23.1955 16.5575C23.0472 16.003 22.685 15.53 22.1883 15.2423L22.0258 15.1557C21.6952 14.9648 21.4209 14.6899 21.2306 14.3589C21.0404 14.0279 20.941 13.6525 20.9425 13.2707V12.729C20.941 12.3472 21.0404 11.9718 21.2306 11.6408C21.4209 11.3098 21.6952 11.0349 22.0258 10.844L22.1883 10.7465C22.685 10.4588 23.0472 9.98582 23.1955 9.43134C23.3438 8.87685 23.266 8.28618 22.9792 7.789L22.7408 7.37734C22.4532 6.88067 21.9802 6.51844 21.4257 6.37017C20.8712 6.2219 20.2805 6.29971 19.7833 6.5865L19.6208 6.67317C19.2915 6.86334 18.9178 6.96345 18.5375 6.96345C18.1572 6.96345 17.7835 6.86334 17.4542 6.67317L16.9883 6.40234C16.6593 6.21236 16.386 5.9392 16.1958 5.61024C16.0057 5.28129 15.9054 4.90812 15.905 4.52817V4.33317C15.905 3.75853 15.6767 3.20743 15.2704 2.80111C14.8641 2.39478 14.313 2.1665 13.7383 2.1665Z" stroke="#F8FAFC" stroke-width="2" stroke-linecap="round" stroke-linejoin="round"/>
<path d="M13.5 16.25C15.2949 16.25 16.75 14.7949 16.75 13C16.75 11.2051 15.2949 9.75 13.5 9.75C11.7051 9.75 10.25 11.2051 10.25 13C10.25 14.7949 11.7051 16.25 13.5 16.25Z" stroke="#F8FAFC" stroke-width="2" stroke-linecap="round" stroke-linejoin="round"/>
</svg>
